<svg width="528" height="101" viewBox="0 0 528 101" fill="none" xmlns="http://www.w3.org/2000/svg">
<path d="M107.98 66C107.18 66 106.54 65.76 106.06 65.28C105.58 64.8 105.34 64.16 105.34 63.36V32.16C105.34 31.36 105.58 30.72 106.06 30.24C106.54 29.76 107.18 29.52 107.98 29.52H127.9C128.02 29.72 128.14 30 128.26 30.36C128.38 30.68 128.44 31.04 128.44 31.44C128.44 32.12 128.28 32.66 127.96 33.06C127.64 33.46 127.18 33.66 126.58 33.66H110.2V45.24H126.04C126.16 45.44 126.28 45.72 126.4 46.08C126.52 46.4 126.58 46.76 126.58 47.16C126.58 47.84 126.42 48.38 126.1 48.78C125.78 49.14 125.32 49.32 124.72 49.32H110.2V61.92H128.2C128.32 62.12 128.44 62.38 128.56 62.7C128.68 63.02 128.74 63.4 128.74 63.84C128.74 64.52 128.58 65.06 128.26 65.46C127.94 65.82 127.48 66 126.88 66H107.98ZM148.16 41.52C146.8 41.52 145.54 41.76 144.38 42.24C143.22 42.68 142.22 43.36 141.38 44.28C140.54 45.16 139.88 46.28 139.4 47.64C138.92 48.96 138.68 50.48 138.68 52.2C138.68 55.64 139.54 58.28 141.26 60.12C142.98 61.92 145.28 62.82 148.16 62.82C149.84 62.82 151.24 62.6 152.36 62.16C153.48 61.68 154.48 61.14 155.36 60.54C155.8 60.78 156.16 61.08 156.44 61.44C156.72 61.8 156.86 62.24 156.86 62.76C156.86 63.32 156.64 63.84 156.2 64.32C155.76 64.8 155.14 65.22 154.34 65.58C153.58 65.94 152.66 66.22 151.58 66.42C150.54 66.66 149.4 66.78 148.16 66.78C146.08 66.78 144.16 66.48 142.4 65.88C140.64 65.28 139.12 64.38 137.84 63.18C136.56 61.98 135.56 60.48 134.84 58.68C134.12 56.84 133.76 54.68 133.76 52.2C133.76 49.76 134.14 47.64 134.9 45.84C135.66 44 136.68 42.46 137.96 41.22C139.24 39.98 140.74 39.06 142.46 38.46C144.22 37.82 146.08 37.5 148.04 37.5C149.28 37.5 150.42 37.62 151.46 37.86C152.54 38.06 153.46 38.36 154.22 38.76C154.98 39.16 155.56 39.62 155.96 40.14C156.4 40.62 156.62 41.12 156.62 41.64C156.62 42.12 156.48 42.54 156.2 42.9C155.92 43.26 155.56 43.54 155.12 43.74C154.24 43.14 153.28 42.62 152.24 42.18C151.2 41.74 149.84 41.52 148.16 41.52ZM183.884 58.62C183.884 61.18 182.944 63.18 181.064 64.62C179.184 66.06 176.464 66.78 172.904 66.78C171.384 66.78 169.984 66.64 168.704 66.36C167.424 66.12 166.324 65.8 165.404 65.4C164.524 64.96 163.824 64.48 163.304 63.96C162.824 63.4 162.584 62.84 162.584 62.28C162.584 61.8 162.704 61.34 162.944 60.9C163.224 60.46 163.624 60.08 164.144 59.76C165.224 60.56 166.484 61.28 167.924 61.92C169.364 62.52 171.004 62.82 172.844 62.82C177.004 62.82 179.084 61.42 179.084 58.62C179.084 56.34 177.704 54.86 174.944 54.18L169.964 52.86C167.524 52.22 165.744 51.3 164.624 50.1C163.504 48.86 162.944 47.28 162.944 45.36C162.944 44.32 163.144 43.32 163.544 42.36C163.984 41.4 164.644 40.56 165.524 39.84C166.404 39.12 167.484 38.56 168.764 38.16C170.084 37.72 171.624 37.5 173.384 37.5C176.184 37.5 178.444 37.92 180.164 38.76C181.884 39.56 182.744 40.5 182.744 41.58C182.744 42.1 182.604 42.56 182.324 42.96C182.084 43.36 181.744 43.66 181.304 43.86C180.584 43.38 179.564 42.86 178.244 42.3C176.924 41.74 175.364 41.46 173.564 41.46C171.764 41.46 170.324 41.8 169.244 42.48C168.204 43.16 167.684 44.12 167.684 45.36C167.684 46.28 167.984 47.06 168.584 47.7C169.184 48.34 170.184 48.82 171.584 49.14L175.724 50.16C178.444 50.84 180.484 51.86 181.844 53.22C183.204 54.54 183.884 56.34 183.884 58.62ZM200.64 66.78C197.84 66.78 195.56 66.16 193.8 64.92C192.08 63.68 191.22 61.62 191.22 58.74V30.24C191.42 30.16 191.72 30.08 192.12 30C192.56 29.88 193.02 29.82 193.5 29.82C195.18 29.82 196.02 30.54 196.02 31.98V38.88H205.86C205.98 39.08 206.1 39.36 206.22 39.72C206.34 40.04 206.4 40.4 206.4 40.8C206.4 42.16 205.8 42.84 204.6 42.84H196.02V58.44C196.02 60.04 196.46 61.18 197.34 61.86C198.26 62.5 199.54 62.82 201.18 62.82C201.86 62.82 202.62 62.7 203.46 62.46C204.3 62.22 205 61.94 205.56 61.62C205.8 61.86 206.02 62.16 206.22 62.52C206.42 62.88 206.52 63.3 206.52 63.78C206.52 64.66 206 65.38 204.96 65.94C203.92 66.5 202.48 66.78 200.64 66.78ZM223.736 62.88C225.416 62.88 226.796 62.72 227.876 62.4C228.996 62.04 229.796 61.7 230.276 61.38V52.68L222.836 53.46C220.756 53.66 219.216 54.14 218.216 54.9C217.216 55.62 216.716 56.7 216.716 58.14C216.716 59.66 217.296 60.84 218.456 61.68C219.616 62.48 221.376 62.88 223.736 62.88ZM223.676 37.5C227.156 37.5 229.916 38.28 231.956 39.84C233.996 41.4 235.016 43.86 235.016 47.22V61.44C235.016 62.32 234.836 63 234.476 63.48C234.156 63.92 233.656 64.34 232.976 64.74C232.016 65.3 230.736 65.78 229.136 66.18C227.576 66.62 225.776 66.84 223.736 66.84C219.976 66.84 217.056 66.1 214.976 64.62C212.936 63.14 211.916 61 211.916 58.2C211.916 55.56 212.776 53.58 214.496 52.26C216.216 50.9 218.636 50.06 221.756 49.74L230.276 48.9V47.22C230.276 45.22 229.676 43.76 228.476 42.84C227.276 41.92 225.656 41.46 223.616 41.46C221.936 41.46 220.356 41.7 218.876 42.18C217.396 42.66 216.076 43.2 214.916 43.8C214.596 43.52 214.296 43.2 214.016 42.84C213.776 42.48 213.656 42.08 213.656 41.64C213.656 41.08 213.796 40.62 214.076 40.26C214.356 39.9 214.796 39.56 215.396 39.24C216.476 38.68 217.716 38.26 219.116 37.98C220.516 37.66 222.036 37.5 223.676 37.5ZM253.257 66.78C250.457 66.78 248.177 66.16 246.417 64.92C244.697 63.68 243.837 61.62 243.837 58.74V30.24C244.037 30.16 244.337 30.08 244.737 30C245.177 29.88 245.637 29.82 246.117 29.82C247.797 29.82 248.637 30.54 248.637 31.98V38.88H258.477C258.597 39.08 258.717 39.36 258.837 39.72C258.957 40.04 259.017 40.4 259.017 40.8C259.017 42.16 258.417 42.84 257.217 42.84H248.637V58.44C248.637 60.04 249.077 61.18 249.957 61.86C250.877 62.5 252.157 62.82 253.797 62.82C254.477 62.82 255.237 62.7 256.077 62.46C256.917 62.22 257.617 61.94 258.177 61.62C258.417 61.86 258.637 62.16 258.837 62.52C259.037 62.88 259.137 63.3 259.137 63.78C259.137 64.66 258.617 65.38 257.577 65.94C256.537 66.5 255.097 66.78 253.257 66.78ZM271.202 65.88C271.002 65.96 270.702 66.04 270.302 66.12C269.902 66.24 269.462 66.3 268.982 66.3C267.262 66.3 266.402 65.58 266.402 64.14V38.4C266.602 38.32 266.902 38.24 267.302 38.16C267.742 38.04 268.202 37.98 268.682 37.98C270.362 37.98 271.202 38.72 271.202 40.2V65.88ZM265.682 29.52C265.682 28.68 265.962 27.98 266.522 27.42C267.122 26.82 267.882 26.52 268.802 26.52C269.722 26.52 270.462 26.82 271.022 27.42C271.582 27.98 271.862 28.68 271.862 29.52C271.862 30.36 271.582 31.08 271.022 31.68C270.462 32.24 269.722 32.52 268.802 32.52C267.882 32.52 267.122 32.24 266.522 31.68C265.962 31.08 265.682 30.36 265.682 29.52ZM293.414 41.52C292.054 41.52 290.794 41.76 289.634 42.24C288.474 42.68 287.474 43.36 286.634 44.28C285.794 45.16 285.134 46.28 284.654 47.64C284.174 48.96 283.934 50.48 283.934 52.2C283.934 55.64 284.794 58.28 286.514 60.12C288.234 61.92 290.534 62.82 293.414 62.82C295.094 62.82 296.494 62.6 297.614 62.16C298.734 61.68 299.734 61.14 300.614 60.54C301.054 60.78 301.414 61.08 301.694 61.44C301.974 61.8 302.114 62.24 302.114 62.76C302.114 63.32 301.894 63.84 301.454 64.32C301.014 64.8 300.394 65.22 299.594 65.58C298.834 65.94 297.914 66.22 296.834 66.42C295.794 66.66 294.654 66.78 293.414 66.78C291.334 66.78 289.414 66.48 287.654 65.88C285.894 65.28 284.374 64.38 283.094 63.18C281.814 61.98 280.814 60.48 280.094 58.68C279.374 56.84 279.014 54.68 279.014 52.2C279.014 49.76 279.394 47.64 280.154 45.84C280.914 44 281.934 42.46 283.214 41.22C284.494 39.98 285.994 39.06 287.714 38.46C289.474 37.82 291.334 37.5 293.294 37.5C294.534 37.5 295.674 37.62 296.714 37.86C297.794 38.06 298.714 38.36 299.474 38.76C300.234 39.16 300.814 39.62 301.214 40.14C301.654 40.62 301.874 41.12 301.874 41.64C301.874 42.12 301.734 42.54 301.454 42.9C301.174 43.26 300.814 43.54 300.374 43.74C299.494 43.14 298.534 42.62 297.494 42.18C296.454 41.74 295.094 41.52 293.414 41.52ZM326.998 52.98V65.88C326.758 65.96 326.438 66.04 326.038 66.12C325.638 66.24 325.198 66.3 324.718 66.3C322.958 66.3 322.078 65.56 322.078 64.08V32.16C322.078 31.52 322.238 31.04 322.558 30.72C322.878 30.36 323.378 30.08 324.058 29.88C325.218 29.52 326.618 29.26 328.258 29.1C329.938 28.94 331.558 28.86 333.118 28.86C338.198 28.86 341.898 29.94 344.218 32.1C346.578 34.22 347.758 37.1 347.758 40.74C347.758 44.46 346.558 47.44 344.158 49.68C341.758 51.88 338.058 52.98 333.058 52.98H326.998ZM332.758 48.9C335.958 48.9 338.438 48.24 340.198 46.92C341.958 45.6 342.838 43.56 342.838 40.8C342.838 38.08 341.978 36.1 340.258 34.86C338.578 33.58 336.158 32.94 332.998 32.94C331.918 32.94 330.838 33 329.758 33.12C328.718 33.2 327.778 33.32 326.938 33.48V48.9H332.758ZM364.595 62.88C366.275 62.88 367.655 62.72 368.735 62.4C369.855 62.04 370.655 61.7 371.135 61.38V52.68L363.695 53.46C361.615 53.66 360.075 54.14 359.075 54.9C358.075 55.62 357.575 56.7 357.575 58.14C357.575 59.66 358.155 60.84 359.315 61.68C360.475 62.48 362.235 62.88 364.595 62.88ZM364.535 37.5C368.015 37.5 370.775 38.28 372.815 39.84C374.855 41.4 375.875 43.86 375.875 47.22V61.44C375.875 62.32 375.695 63 375.335 63.48C375.015 63.92 374.515 64.34 373.835 64.74C372.875 65.3 371.595 65.78 369.995 66.18C368.435 66.62 366.635 66.84 364.595 66.84C360.835 66.84 357.915 66.1 355.835 64.62C353.795 63.14 352.775 61 352.775 58.2C352.775 55.56 353.635 53.58 355.355 52.26C357.075 50.9 359.495 50.06 362.615 49.74L371.135 48.9V47.22C371.135 45.22 370.535 43.76 369.335 42.84C368.135 41.92 366.515 41.46 364.475 41.46C362.795 41.46 361.215 41.7 359.735 42.18C358.255 42.66 356.935 43.2 355.775 43.8C355.455 43.52 355.155 43.2 354.875 42.84C354.635 42.48 354.515 42.08 354.515 41.64C354.515 41.08 354.655 40.62 354.935 40.26C355.215 39.9 355.655 39.56 356.255 39.24C357.335 38.68 358.575 38.26 359.975 37.98C361.375 37.66 362.895 37.5 364.535 37.5ZM389.437 65.88C389.237 65.96 388.937 66.04 388.537 66.12C388.137 66.24 387.697 66.3 387.217 66.3C385.497 66.3 384.637 65.58 384.637 64.14V43.8C384.637 42.88 384.797 42.16 385.117 41.64C385.477 41.08 386.057 40.54 386.857 40.02C387.897 39.34 389.297 38.76 391.057 38.28C392.857 37.76 394.877 37.5 397.117 37.5C400.317 37.5 401.917 38.3 401.917 39.9C401.917 40.3 401.857 40.68 401.737 41.04C401.617 41.36 401.457 41.64 401.257 41.88C400.857 41.8 400.337 41.72 399.697 41.64C399.057 41.56 398.417 41.52 397.777 41.52C395.937 41.52 394.317 41.72 392.917 42.12C391.517 42.48 390.357 42.92 389.437 43.44V65.88ZM417.154 62.88C418.834 62.88 420.214 62.72 421.294 62.4C422.414 62.04 423.214 61.7 423.694 61.38V52.68L416.254 53.46C414.174 53.66 412.634 54.14 411.634 54.9C410.634 55.62 410.134 56.7 410.134 58.14C410.134 59.66 410.714 60.84 411.874 61.68C413.034 62.48 414.794 62.88 417.154 62.88ZM417.094 37.5C420.574 37.5 423.334 38.28 425.374 39.84C427.414 41.4 428.434 43.86 428.434 47.22V61.44C428.434 62.32 428.254 63 427.894 63.48C427.574 63.92 427.074 64.34 426.394 64.74C425.434 65.3 424.154 65.78 422.554 66.18C420.994 66.62 419.194 66.84 417.154 66.84C413.394 66.84 410.474 66.1 408.394 64.62C406.354 63.14 405.334 61 405.334 58.2C405.334 55.56 406.194 53.58 407.914 52.26C409.634 50.9 412.054 50.06 415.174 49.74L423.694 48.9V47.22C423.694 45.22 423.094 43.76 421.894 42.84C420.694 41.92 419.074 41.46 417.034 41.46C415.354 41.46 413.774 41.7 412.294 42.18C410.814 42.66 409.494 43.2 408.334 43.8C408.014 43.52 407.714 43.2 407.434 42.84C407.194 42.48 407.074 42.08 407.074 41.64C407.074 41.08 407.214 40.62 407.494 40.26C407.774 39.9 408.214 39.56 408.814 39.24C409.894 38.68 411.134 38.26 412.534 37.98C413.934 37.66 415.454 37.5 417.094 37.5ZM460.895 61.44C460.895 62.24 460.715 62.86 460.355 63.3C460.035 63.74 459.515 64.18 458.795 64.62C457.995 65.14 456.855 65.62 455.375 66.06C453.895 66.54 452.195 66.78 450.275 66.78C448.115 66.78 446.135 66.5 444.335 65.94C442.535 65.38 440.975 64.52 439.655 63.36C438.375 62.16 437.375 60.66 436.655 58.86C435.975 57.02 435.635 54.82 435.635 52.26C435.635 49.66 435.995 47.44 436.715 45.6C437.435 43.72 438.395 42.18 439.595 40.98C440.835 39.78 442.275 38.9 443.915 38.34C445.595 37.78 447.375 37.5 449.255 37.5C450.535 37.5 451.775 37.66 452.975 37.98C454.175 38.3 455.215 38.7 456.095 39.18V27.12C456.295 27.04 456.595 26.96 456.995 26.88C457.435 26.76 457.875 26.7 458.315 26.7C460.035 26.7 460.895 27.42 460.895 28.86V61.44ZM456.095 43.5C455.295 42.94 454.375 42.46 453.335 42.06C452.295 41.66 451.095 41.46 449.735 41.46C448.495 41.46 447.315 41.66 446.195 42.06C445.115 42.42 444.155 43.04 443.315 43.92C442.475 44.76 441.795 45.88 441.275 47.28C440.795 48.68 440.555 50.38 440.555 52.38C440.555 56.06 441.435 58.72 443.195 60.36C444.955 62 447.295 62.82 450.215 62.82C451.615 62.82 452.755 62.68 453.635 62.4C454.555 62.08 455.375 61.7 456.095 61.26V43.5ZM495.748 52.14C495.748 54.38 495.428 56.4 494.788 58.2C494.148 60 493.228 61.54 492.028 62.82C490.868 64.1 489.448 65.08 487.768 65.76C486.088 66.44 484.208 66.78 482.128 66.78C480.048 66.78 478.168 66.44 476.488 65.76C474.808 65.08 473.368 64.1 472.168 62.82C470.968 61.54 470.048 60 469.408 58.2C468.768 56.4 468.448 54.38 468.448 52.14C468.448 49.9 468.768 47.88 469.408 46.08C470.088 44.28 471.028 42.74 472.228 41.46C473.428 40.18 474.868 39.2 476.548 38.52C478.228 37.84 480.088 37.5 482.128 37.5C484.168 37.5 486.028 37.84 487.708 38.52C489.388 39.2 490.808 40.18 491.968 41.46C493.168 42.74 494.088 44.28 494.728 46.08C495.408 47.88 495.748 49.9 495.748 52.14ZM482.128 41.46C479.408 41.46 477.268 42.4 475.708 44.28C474.148 46.16 473.368 48.78 473.368 52.14C473.368 55.54 474.128 58.18 475.648 60.06C477.208 61.9 479.368 62.82 482.128 62.82C484.888 62.82 487.028 61.88 488.548 60C490.068 58.12 490.828 55.5 490.828 52.14C490.828 48.78 490.048 46.16 488.488 44.28C486.968 42.4 484.848 41.46 482.128 41.46ZM502.039 61.68C503.279 60 504.579 58.36 505.939 56.76C507.299 55.16 508.659 53.52 510.019 51.84C508.339 49.8 506.779 47.88 505.339 46.08C503.899 44.24 502.419 42.34 500.899 40.38C501.059 39.58 501.339 38.96 501.739 38.52C502.179 38.08 502.739 37.86 503.419 37.86C504.099 37.86 504.619 38.04 504.979 38.4C505.379 38.72 505.799 39.16 506.239 39.72C507.279 41.12 508.339 42.62 509.419 44.22C510.539 45.78 511.699 47.34 512.899 48.9C514.379 47.02 515.779 45.24 517.099 43.56C518.419 41.84 519.779 39.96 521.179 37.92C521.379 37.88 521.599 37.86 521.839 37.86C522.679 37.86 523.339 38.06 523.819 38.46C524.299 38.82 524.539 39.32 524.539 39.96C524.539 40.4 524.439 40.82 524.239 41.22C524.079 41.62 523.799 42.08 523.399 42.6C522.159 44.12 520.879 45.68 519.559 47.28C518.279 48.84 516.999 50.38 515.719 51.9C517.279 53.94 518.839 55.96 520.399 57.96C521.999 59.92 523.579 61.9 525.139 63.9C525.059 64.66 524.799 65.26 524.359 65.7C523.919 66.14 523.339 66.36 522.619 66.36C521.939 66.36 521.379 66.2 520.939 65.88C520.539 65.52 520.059 64.98 519.499 64.26C518.419 62.82 517.299 61.3 516.139 59.7C515.019 58.06 513.899 56.48 512.779 54.96C511.379 56.8 509.959 58.68 508.519 60.6C507.119 62.52 505.759 64.42 504.439 66.3H503.599C502.679 66.3 501.979 66.1 501.499 65.7C501.059 65.3 500.839 64.8 500.839 64.2C500.839 63.88 500.899 63.56 501.019 63.24C501.179 62.88 501.519 62.36 502.039 61.68Z" fill="white"/>
<path d="M40 11C17.92 11 0 28.92 0 51C0 73.08 17.92 91 40 91C62.08 91 80 73.08 80 51C80 28.92 62.08 11 40 11ZM58.56 78.28C55.04 80.28 50.16 81.24 44.08 81.24C38.32 81.24 35.36 80.28 35.36 78.36C35.36 76.84 36.88 76.12 40 76.12C40.88 76.12 42.56 76.28 44.96 76.68C46.96 77 48.8 77.16 50.4 77.16C53.12 77.16 55.28 76.6 56.96 75.56C58.56 74.52 59.36 73.32 59.36 71.96C59.36 70.52 58.48 69.4 56.72 68.76C54.96 68.12 52 67.72 48 67.72C47.04 67.72 44.8 67.8 41.2 67.88C39.6 67.96 38.24 67.96 37.12 67.96C21.28 67.96 13.36 63.24 13.36 53.72C13.36 45 19.84 37.24 32.72 30.52C29.44 30.44 26.64 30.04 24.48 29.24C22.32 28.44 21.2 27.24 21.2 25.72C21.2 23.24 24.72 21.56 31.84 20.6C32.08 20.6 32.32 20.68 32.48 20.84C32.8 21.24 32.64 21.88 32.16 21.96C28.56 22.84 26.8 24.04 26.8 25.48C26.8 26.6 27.6 27.48 29.2 28.12C30.8 28.76 32.64 29 34.72 29C35.36 29 35.92 28.84 36.48 28.6C39.52 27.08 43.12 25.64 47.28 24.28C51.76 22.76 55.36 22.04 58 22.04C60 22.04 61.04 22.44 61.04 23.24C61.04 24.68 58.96 26.12 54.8 27.48C50.64 28.92 44.88 29.88 37.52 30.44C25.6 36.44 19.6 43.56 19.6 51.64C19.6 55 20.96 57.48 23.68 59.16C26.4 60.84 31.12 61.64 38 61.64C38.72 61.64 40.48 61.56 43.2 61.48C46.24 61.4 48.32 61.4 49.44 61.4C54.64 61.4 58.32 62.2 60.64 63.88C62.88 65.56 64.08 67.56 64.08 69.88C63.84 73.56 62.08 76.28 58.56 78.28Z" fill="white"/>
</svg>
